<svg xmlns="http://www.w3.org/2000/svg" xmlns:xlink="http://www.w3.org/1999/xlink" width="53" height="53" viewBox="0 0 53 53"><defs><path id="dtjea" d="M521 337.5a26.5 26.5 0 1 1 53 0 26.5 26.5 0 1 1-53 0z"/><path id="dtjeb" d="M541.12 332.37h3v-2.98c0-1.32 0-3.35.97-4.64a5.32 5.32 0 0 1 4.66-2.23c1.81-.08 3.62.11 5.37.56l-.75 4.55a9.93 9.93 0 0 0-2.41-.37c-1.17 0-2.22.43-2.22 1.62v3.48h4.78l-.32 4.44h-4.46v15.45h-5.66v-15.43h-2.96z"/></defs><g><g transform="translate(-521 -311)"><g><use fill="#3b5998" xlink:href="#dtjea"/></g><g><use fill="#fff" fill-opacity=".93" xlink:href="#dtjeb"/></g></g></g></svg>