<svg xmlns="http://www.w3.org/2000/svg" xmlns:xlink="http://www.w3.org/1999/xlink" width="53" height="53" viewBox="0 0 53 53"><defs><path id="hauka" d="M685 337.5a26.5 26.5 0 1 1 53 0 26.5 26.5 0 1 1-53 0z"/><path id="haukb" d="M711.5 338a8.5 8.5 0 1 1 .02-17.02 8.5 8.5 0 0 1-.02 17.02zm-3.52-8.5a3.52 3.52 0 1 0 7.05 0 3.52 3.52 0 0 0-7.05 0z"/><path id="haukc" d="M714.92 344.37a16.2 16.2 0 0 0 4.92-1.96c1.16-.7 1.5-2.18.78-3.3a2.56 2.56 0 0 0-3.42-.75 11.1 11.1 0 0 1-11.4 0 2.56 2.56 0 0 0-1.87-.3c-.64.14-1.2.52-1.55 1.06a2.34 2.34 0 0 0 .78 3.29c1.51.91 3.17 1.58 4.91 1.96l-4.73 4.55c-.63.6-.87 1.49-.64 2.31.23.82.9 1.47 1.75 1.69.86.22 1.77-.02 2.4-.62l4.65-4.48 4.65 4.48a2.53 2.53 0 0 0 3.5 0 2.34 2.34 0 0 0 0-3.37l-4.73-4.56z"/></defs><g><g transform="translate(-685 -311)"><g><use fill="#eb722e" xlink:href="#hauka"/></g><g><use fill="#fff" xlink:href="#haukb"/></g><g><use fill="#fff" xlink:href="#haukc"/></g></g></g></svg>