<svg xmlns="http://www.w3.org/2000/svg" xmlns:xlink="http://www.w3.org/1999/xlink" width="53" height="53" viewBox="0 0 53 53"><defs><path id="zhf1a" d="M603 337.5a26.5 26.5 0 1 1 53 0 26.5 26.5 0 1 1-53 0z"/><path id="zhf1b" d="M642.71 330.78c-.94.4-1.93.67-2.95.79a5.05 5.05 0 0 0 2.28-2.79c-1 .59-2.1 1-3.24 1.22a5.17 5.17 0 0 0-3.74-1.56 5.08 5.08 0 0 0-4.98 6.16 14.66 14.66 0 0 1-10.63-5.25 4.94 4.94 0 0 0 1.58 6.7 5.21 5.21 0 0 1-2.34-.63v.06a5.05 5.05 0 0 0 4.11 4.93 5.12 5.12 0 0 1-2.32.08 5.12 5.12 0 0 0 4.8 3.5 10.55 10.55 0 0 1-7.57 2.1 14.77 14.77 0 0 0 7.87 2.26c7.9.14 14.43-6.15 14.58-14.06v-.88c1-.72 1.86-1.6 2.55-2.63"/></defs><g><g transform="translate(-603 -311)"><g><use fill="#00aced" xlink:href="#zhf1a"/></g><g><use fill="#f6f5fa" xlink:href="#zhf1b"/></g></g></g></svg>