<svg xmlns="http://www.w3.org/2000/svg" xmlns:xlink="http://www.w3.org/1999/xlink" width="53" height="53" viewBox="0 0 53 53"><defs><path id="c822a" d="M439 337.5a26.5 26.5 0 1 1 53 0 26.5 26.5 0 1 1-53 0z"/><path id="c822b" d="M462.73 346.66h1.67c.28-.04.55-.15.77-.34.15-.22.24-.49.23-.76 0 0 0-2.28 1.01-2.62 1-.34 2.34 2.21 3.74 3.19.52.43 1.2.63 1.86.57l3.74-.05s1.96-.12 1.03-1.7a12.69 12.69 0 0 0-2.8-3.27c-2.35-2.22-2.04-1.89.79-5.7 1.72-2.33 2.4-3.76 2.2-4.38-.22-.6-1.47-.43-1.47-.43h-4.21a.93.93 0 0 0-.55.1 1.2 1.2 0 0 0-.37.46 25.11 25.11 0 0 1-1.56 3.35c-1.87 3.25-2.62 3.42-2.93 3.22-.71-.47-.54-1.88-.54-2.9 0-3.14.47-4.44-.93-4.78a7.08 7.08 0 0 0-1.97-.2 8.93 8.93 0 0 0-3.5.37c-.47.23-.84.77-.62.8.48.04.93.27 1.24.64.3.6.44 1.26.42 1.94 0 0 .26 3.7-.58 4.16-.57.32-1.34-.33-3.01-3.28a27.62 27.62 0 0 1-1.46-3.15 1.27 1.27 0 0 0-.3-.47c-.2-.13-.42-.22-.65-.27l-4.03.02s-.6 0-.82.28c-.22.29 0 .73 0 .73s3.14 7.47 6.69 11.24a9.53 9.53 0 0 0 6.95 3.23z"/></defs><g><g transform="translate(-439 -311)"><g><use fill="#45668e" xlink:href="#c822a"/></g><g><use fill="#f6f5fa" xlink:href="#c822b"/></g></g></g></svg>