<svg xmlns="http://www.w3.org/2000/svg" xmlns:xlink="http://www.w3.org/1999/xlink" width="139" height="29" viewBox="0 0 139 29"><defs><path id="1wtqa" d="M56.6 39.03h1.1v-3.7c0-2.77-1.8-4.51-4.61-4.51H34.48c-2.81 0-4.62 1.74-4.62 4.5v3.7h1.1a3.61 3.61 0 0 1 3.54 3.66v3.64c0 1.9-1.5 3.65-3.55 3.65h-1.09v3.7c0 2.76 1.81 4.5 4.62 4.5h18.6c2.81 0 4.62-1.74 4.62-4.5v-3.7h-1.1a3.6 3.6 0 0 1-3.54-3.65v-3.64a3.6 3.6 0 0 1 3.55-3.65zm-5.4 10.05c0 3.51-2.88 6.36-6.45 6.36h-1.93a6.41 6.41 0 0 1-6.46-6.36v-6.43c0-3.51 2.89-6.36 6.46-6.36h1.93a6.4 6.4 0 0 1 6.46 6.36v6.43z"/><path id="1wtqb" d="M44.74 37.21H42.7c-2.97 0-5.41 2.67-5.41 5.6v6.13c0 2.93 2.44 5.6 5.41 5.6h2.06a5.72 5.72 0 0 0 5.52-5.6V42.8c0-2.92-2.55-5.59-5.53-5.59zm3.68 9.12c0 1.92-2.04 3.66-4.08 3.66H43.2c-2.04 0-4.07-1.74-4.07-3.66V42.7c0-1.92 2.03-3.66 4.07-3.66h1.13c2.04 0 4.08 1.74 4.08 3.66z"/><path id="1wtqc" d="M43.85 48.15h-.1c-1.42 0-2.75-.82-2.75-2.26v-1.37s0-.5-.47-.5c-.46 0-.46.5-.46.5v1.37c0 1.94 1.75 3.17 3.68 3.17h.1s.45 0 .45-.45c0-.44-.45-.46-.45-.46"/><path id="1wtqd" d="M76.37 49.89l-.3-1.4H76c-.5.62-.99 1.03-1.48 1.25-.5.22-1.1.33-1.84.33-.99 0-1.76-.25-2.32-.75a2.7 2.7 0 0 1-.84-2.13c0-1.97 1.6-3 4.81-3.1l1.69-.05v-.6c0-.77-.17-1.34-.5-1.7-.34-.37-.87-.55-1.61-.55-.83 0-1.77.25-2.81.75l-.46-1.13a7.11 7.11 0 0 1 3.36-.84c1.18 0 2.06.26 2.63.77.57.52.86 1.35.86 2.49v6.66h-1.12zm-3.4-1.04c.94 0 1.67-.26 2.2-.76.54-.5.8-1.21.8-2.12v-.88l-1.5.06c-1.2.04-2.05.23-2.58.55-.53.32-.8.83-.8 1.5 0 .54.17.95.5 1.23.33.28.79.42 1.38.42z"/><path id="1wtqe" d="M82.67 49.89l-3.77-9.76h1.61l2.14 5.79c.49 1.35.77 2.23.85 2.63h.08c.06-.31.27-.96.63-1.95.35-.99 1.14-3.15 2.38-6.47h1.6l-3.76 9.76h-1.76z"/><path id="1wtqf" d="M89.59 37.48c0-.34.08-.59.25-.74a.9.9 0 0 1 .64-.24.9.9 0 0 1 .62.24c.18.16.27.4.27.74 0 .33-.1.58-.27.74a.89.89 0 0 1-.62.25.88.88 0 0 1-.64-.25c-.17-.16-.25-.4-.25-.74zm.13 12.4h1.49v-9.76h-1.5z"/><path id="1wtqg" d="M100.44 49.89l-.3-1.4h-.07c-.5.62-.99 1.03-1.48 1.25-.5.22-1.1.33-1.85.33-.98 0-1.75-.25-2.31-.75a2.7 2.7 0 0 1-.84-2.13c0-1.97 1.6-3 4.81-3.1l1.69-.05v-.6c0-.77-.17-1.34-.5-1.7-.34-.37-.87-.55-1.61-.55-.83 0-1.77.25-2.81.75l-.47-1.13a7.11 7.11 0 0 1 3.37-.84c1.18 0 2.06.26 2.63.77.57.52.86 1.35.86 2.49v6.66h-1.12zm-3.4-1.04c.94 0 1.67-.26 2.2-.76.54-.5.8-1.21.8-2.12v-.88l-1.5.06c-1.2.04-2.05.23-2.58.55-.53.32-.8.83-.8 1.5 0 .54.17.95.5 1.23.33.28.79.42 1.38.42z"/><path id="1wtqh" d="M110.97 47.23c0 .9-.34 1.6-1.03 2.1-.69.49-1.66.73-2.9.73a6.4 6.4 0 0 1-3.08-.6v-1.38a7.59 7.59 0 0 0 3.11.77c.79 0 1.4-.13 1.82-.37.42-.25.63-.63.63-1.13 0-.38-.17-.7-.5-.98a7.96 7.96 0 0 0-1.96-.95c-.93-.34-1.59-.64-1.98-.89a2.67 2.67 0 0 1-.87-.86 2.2 2.2 0 0 1-.28-1.15c0-.8.33-1.42.99-1.88a4.66 4.66 0 0 1 2.7-.69c1.08 0 2.12.21 3.14.64l-.53 1.2c-1-.4-1.9-.6-2.71-.6-.71 0-1.25.1-1.62.33-.36.22-.54.52-.54.9 0 .27.07.49.2.67a2 2 0 0 0 .66.53c.3.16.88.4 1.74.72 1.18.42 1.98.85 2.4 1.27.4.43.61.97.61 1.61"/><path id="1wtqi" d="M119.44 49.89l-.3-1.4h-.07c-.5.62-.99 1.03-1.48 1.25-.5.22-1.1.33-1.85.33-.98 0-1.75-.25-2.31-.75a2.7 2.7 0 0 1-.84-2.13c0-1.97 1.6-3 4.81-3.1l1.69-.05v-.6c0-.77-.17-1.34-.5-1.7-.34-.37-.87-.55-1.61-.55-.83 0-1.77.25-2.81.75l-.46-1.13a7.11 7.11 0 0 1 3.36-.84c1.18 0 2.06.26 2.63.77.57.52.86 1.35.86 2.49v6.66h-1.12zm-3.4-1.04c.94 0 1.67-.26 2.2-.76.54-.5.8-1.21.8-2.12v-.88l-1.5.06c-1.2.04-2.05.23-2.58.55-.53.32-.8.83-.8 1.5 0 .54.17.95.5 1.23.33.28.79.42 1.38.42z"/><path id="1wtqj" d="M123.56 49.88h1.5V36.03h-1.5z"/><path id="1wtqk" d="M132.38 50.06a4.61 4.61 0 0 1-3.48-1.31 5.05 5.05 0 0 1-1.27-3.66c0-1.58.4-2.83 1.18-3.75a3.96 3.96 0 0 1 3.18-1.39c1.24 0 2.23.4 2.95 1.2.73.81 1.1 1.87 1.1 3.19v.93h-6.85c.03 1.15.32 2.02.88 2.61.56.6 1.35.9 2.36.9 1.1-.01 2.17-.24 3.18-.67v1.32c-.49.21-1 .38-1.51.49-.48.1-1.05.14-1.72.14m-.4-8.87c-.8 0-1.44.25-1.92.76-.47.5-.75 1.21-.83 2.11h5.19c0-.93-.21-1.64-.64-2.13-.42-.5-1.02-.74-1.8-.74"/><path id="1wtql" d="M144.91 47.23c0 .9-.34 1.6-1.03 2.1-.69.49-1.65.73-2.9.73a6.4 6.4 0 0 1-3.08-.6v-1.38a7.61 7.61 0 0 0 3.12.77c.78 0 1.39-.13 1.8-.37.43-.25.64-.63.64-1.13 0-.38-.16-.7-.5-.98a7.96 7.96 0 0 0-1.96-.95c-.93-.34-1.58-.64-1.97-.89a2.67 2.67 0 0 1-.87-.86c-.2-.32-.29-.7-.29-1.15 0-.8.33-1.42.99-1.88a4.67 4.67 0 0 1 2.7-.69c1.08 0 2.12.21 3.14.64l-.53 1.2c-1-.4-1.9-.6-2.71-.6-.71 0-1.25.1-1.61.33-.37.22-.55.52-.55.9 0 .27.07.49.2.67.14.19.36.36.66.53.3.16.89.4 1.74.72 1.18.42 1.98.85 2.4 1.27.4.43.61.97.61 1.61"/><path id="1wtqm" d="M147.05 48.94c0-.4.1-.7.28-.9.18-.2.44-.31.79-.31.35 0 .62.1.82.3.2.21.3.51.3.91 0 .39-.1.68-.3.9-.2.2-.48.3-.82.3-.3 0-.56-.1-.77-.28-.2-.18-.3-.5-.3-.92"/><path id="1wtqn" d="M156.64 39.95a6 6 0 0 1 1.19.1l-.2 1.38a5.2 5.2 0 0 0-1.1-.13c-.8 0-1.49.32-2.06.96a3.47 3.47 0 0 0-.86 2.4v5.23h-1.5v-9.76h1.24l.17 1.8h.08a4.3 4.3 0 0 1 1.33-1.46c.5-.34 1.1-.52 1.71-.52"/><path id="1wtqo" d="M161.01 40.13v6.33c0 .8.19 1.39.56 1.78.37.4.94.59 1.73.59 1.04 0 1.8-.28 2.28-.84.48-.56.72-1.47.72-2.73v-5.13h1.5v9.76h-1.24l-.22-1.31h-.08c-.3.48-.73.85-1.28 1.1-.55.26-1.17.39-1.87.39-1.21 0-2.12-.29-2.72-.85-.6-.56-.9-1.47-.9-2.7v-6.39z"/></defs><g><g transform="translate(-29 -30)"><g><g><use fill="#fff" xlink:href="#1wtqa"/></g><g><use fill="#fff" xlink:href="#1wtqb"/></g><g><use fill="#fff" xlink:href="#1wtqc"/></g><g><use fill="#fff" xlink:href="#1wtqd"/></g><g><use fill="#fff" xlink:href="#1wtqe"/></g><g><use fill="#fff" xlink:href="#1wtqf"/></g><g><use fill="#fff" xlink:href="#1wtqg"/></g><g><use fill="#fff" xlink:href="#1wtqh"/></g><g><use fill="#fff" xlink:href="#1wtqi"/></g><g><use fill="#fff" xlink:href="#1wtqj"/></g><g><use fill="#fff" xlink:href="#1wtqk"/></g><g><use fill="#fff" xlink:href="#1wtql"/></g><g><use fill="#fff" xlink:href="#1wtqm"/></g><g><use fill="#fff" xlink:href="#1wtqn"/></g><g><use fill="#fff" xlink:href="#1wtqo"/></g></g></g></g></svg>