<svg xmlns="http://www.w3.org/2000/svg" xmlns:xlink="http://www.w3.org/1999/xlink" width="1440" height="809" viewBox="0 0 1440 809"><defs><path id="c9n7a" d="M229.75 210.87v-22h22v22z"/><path id="c9n7b" d="M229.75 248.87v-22h22v22z"/><path id="c9n7c" d="M229.75 286.87v-22h22v22z"/><path id="c9n7d" d="M229.75 324.87v-22h22v22z"/><path id="c9n7h" d="M-100 710V607h1440v103z"/><path id="c9n7i" d="M358.8 650c-32.85 0-98.53-.99-87.58 12.01C282.16 675.01 357 687 446 668s249.8-.2 279 6c29.2 6.2 166.57 2 162.92-11-3.65-13-93.53-19-204.35-19-110.81 0-291.93 6-324.77 6z"/><path id="c9n7e" d="M391 93s-19.87 146.71-22.29 214c-.17 4.74-8.71 3-8.71 12s8.07 10.05 8 14c-2 108 23 269 23 269s-63 37-79 33c-10-12-30-18-30 0s25 24 30 22 20 12 43 6 39-13 48-9 21 11 36 3-1-39-8-55-33-153-33-239 33-270 33-270z"/><path id="c9n7k" d="M377 143.6V79h68.37v64.6z"/><path id="c9n7l" d="M340 370V222h48v148z"/><path id="c9n7m" d="M265.93 626c4 10 27 23 46 23 8 5 28 13 49 2S399 626 399 626s19 6 27 0 5-25 5-25 13.13-4.85 14-4c12.76 12.47-.92 25.88 15.93 29 27 5 16 34-8 41s-109 17-146 7-45-58-41-48z"/><path id="c9n7n" d="M375.95 462.47s-5.7 11.79-4.66 12.3c1.04.51 8.36-10.5 8.36-10.5z"/><path id="c9n7o" d="M378.95 189.75s-5.7 11.79-4.66 12.3c1.04.51 8.36-10.5 8.36-10.5z"/><path id="c9n7p" d="M388.76 338.59s5.78 11.75 6.83 11.24c1.04-.5-3.12-13.05-3.12-13.05z"/><path id="c9n7q" d="M392.52 494.56s-1.15 16.19 0 16.3c1.16.13 4.1-15.86 4.1-15.86z"/><path id="c9n7r" d="M403.15 229.28s8.82 13.62 9.81 13.02c1-.6-6.27-15.15-6.27-15.15z"/><path id="c9n7s" d="M372.52 355.56s-1.15 16.19 0 16.3c1.16.13 4.1-15.86 4.1-15.86z"/><path id="c9n7t" d="M418.93 576.64s7.84 14.2 8.88 13.68c1.03-.53-5.2-15.55-5.2-15.55z"/><path id="c9n7u" d="M418.93 135.9s7.84 14.2 8.88 13.67c1.03-.53-5.2-15.55-5.2-15.55z"/><path id="c9n7v" d="M398.93 437.64s7.84 14.2 8.88 13.68c1.03-.53-5.2-15.55-5.2-15.55z"/><path id="c9n7w" d="M404.9 165.32s7.84 14.2 8.88 13.68c1.03-.53-5.2-15.55-5.2-15.55z"/><path id="c9n7x" d="M395.27 570.77s-1.16 10.49 0 10.55c1.16.06 4.12-10.33 4.12-10.33z"/><path id="c9n7y" d="M387.27 223.77s-1.16 10.49 0 10.55c1.16.06 4.12-10.33 4.12-10.33z"/><path id="c9n7z" d="M375.27 431.77s-1.16 10.49 0 10.55c1.16.06 4.12-10.33 4.12-10.33z"/><path id="c9n7A" d="M383.91 154.75s-5.35 5.48-4.7 6.03c.63.55 6.96-4.06 6.96-4.06z"/><path id="c9n7B" d="M391.2 549.77s-5.72 6.52-4.97 7.1c.75.6 7.65-5.01 7.65-5.01z"/><path id="c9n7C" d="M393.77 277.99s.86 8.64 1.8 8.49c.95-.15 1.55-9.02 1.55-9.02z"/><path id="c9n7D" d="M371.2 410.77s-5.72 6.52-4.97 7.1c.75.6 7.65-5.01 7.65-5.01z"/><path id="c9n7E" d="M385.08 127.81s-8.52 8.3-7.2 9.24c1.32.92 11.9-5.95 11.9-5.95z"/><path id="c9n7F" d="M380.64 526.47s-5.13 9.61-4.46 10c.68.4 6.85-8.61 6.85-8.61z"/><path id="c9n7G" d="M383.64 251.47s-5.13 9.61-4.46 10c.68.4 6.85-8.61 6.85-8.61z"/><path id="c9n7H" d="M397.35 471.66s4.76 9.8 5.48 9.48c.7-.31-2.95-10.6-2.95-10.6z"/><path id="c9n7I" d="M403.32 199.34s4.76 9.8 5.48 9.48c.7-.31-2.95-10.6-2.95-10.6z"/><path id="c9n7J" d="M391.37 593.1s-2.68 6.6-2 7c.67.39 4-5 4-5z"/><path id="c9n7K" d="M389.37 448.1s-2.68 6.6-2 7c.67.39 4-5 4-5z"/><path id="c9n7L" d="M395.34 175.78s-2.68 6.6-2 7c.67.39 4-5 4-5z"/><path id="c9n7M" d="M417.13 558.36s6.46 3.02 6.89 2.36c.42-.65-4.79-4.25-4.79-4.25z"/><path id="c9n7N" d="M396.13 315.3s6.46 3.02 6.89 2.36c.42-.65-4.79-4.25-4.79-4.25z"/><path id="c9n7O" d="M397.13 419.36s6.46 3.02 6.89 2.36c.42-.65-4.79-4.25-4.79-4.25z"/><path id="c9n7P" d="M403.1 147.04s6.46 3.02 6.89 2.36c.42-.65-4.79-4.25-4.79-4.25z"/><path id="c9n7Q" d="M404.91 527.8s7.04 12.58 7.73 12.21c.69-.36-5.28-13.5-5.28-13.5z"/><path id="c9n7R" d="M384.91 388.8s7.04 12.58 7.73 12.21c.69-.36-5.28-13.5-5.28-13.5z"/><path id="c9n7S" d="M409.64 504.54s2.98 7.38 3.53 7.02c.55-.36-1.58-8.3-1.58-8.3z"/><path id="c9n7T" d="M389.64 365.54s2.98 7.38 3.53 7.02c.55-.36-1.58-8.3-1.58-8.3z"/><path id="c9n7U" d="M229.74 361.77L188.55 168l159.93-34 41.19 193.79z"/><path id="c9n7W" d="M267.75 210.87v-22h83v22z"/><path id="c9n7Y" d="M267.75 248.87v-22h83v22z"/><path id="c9n7aa" d="M267.75 286.87v-22h83v22z"/><path id="c9n7ac" d="M267.75 324.87v-22h83v22z"/><path id="c9n7f" d="M777 107s9.41 124.27 13.89 191.45c.25 3.7 5.11 1.55 8.11 10.55 3 9-6.28 11.41-6.02 15C800.63 431.75 777 599 777 599s64.23 44.84 80 40c13 0 24-10.37 28-4 4 6.38-3 26.57-22.3 19.92-8.7 6.65-19.34 13.03-42.63 8.24-23.28-4.78-41.3-8.62-50.07-4.16-8.78 4.47-18.73 9.77-34.12 2.57-15.4-7.2-10.88-28.62 5.1-55.34 16-26.73 19.52-156.04 15.02-241.92S725 112 725 112z"/><path id="c9n7ae" d="M718 157.1V90h75.96v67.1z"/><path id="c9n7af" d="M895.77 626c-4 10-27 23-46 23-8 5-28 13-49 2s-38.07-25-38.07-25-19 6-27 0-5-25-5-25-13.13-4.85-14-4c-12.76 12.47.92 25.88-15.93 29-27 5-16 34 8 41s109 17 146 7 45-58 41-48z"/><path id="c9n7ag" d="M747.7 461.99s-5.7 11.79-4.66 12.3c1.04.51 8.36-10.5 8.36-10.5z"/><path id="c9n7ah" d="M733.17 194.9s-5.7 11.79-4.66 12.3c1.04.51 8.36-10.5 8.36-10.5z"/><path id="c9n7ai" d="M766.64 341.1s5.78 11.75 6.83 11.24c1.04-.5-3.12-13.05-3.12-13.05z"/><path id="c9n7aj" d="M764.27 494.08s-1.15 16.19 0 16.3c1.16.13 4.1-15.86 4.1-15.86z"/><path id="c9n7ak" d="M771.84 243.32s8.82 13.62 9.81 13.02c1-.6-6.27-15.15-6.27-15.15z"/><path id="c9n7al" d="M738.55 364.29s-8.38 13.9-7.4 14.52c.97.64 10.86-12.28 10.86-12.28z"/><path id="c9n7am" d="M790.69 576.16s7.84 14.2 8.88 13.68c1.03-.53-5.2-15.55-5.2-15.55z"/><path id="c9n7an" d="M733.47 259.9s-8.25 12.2-7.14 12.53c1.1.34 11.89-11.35 11.89-11.35z"/><path id="c9n7ao" d="M770.69 437.16s7.84 14.2 8.88 13.68c1.03-.53-5.2-15.55-5.2-15.55z"/><path id="c9n7ap" d="M776.65 164.84s7.84 14.2 8.88 13.68c1.03-.53-5.2-15.55-5.2-15.55z"/><path id="c9n7aq" d="M767.02 570.3s-1.16 10.48 0 10.54c1.16.06 4.12-10.33 4.12-10.33z"/><path id="c9n7ar" d="M759.02 223.3s-1.16 10.48 0 10.54c1.16.06 4.12-10.33 4.12-10.33z"/><path id="c9n7as" d="M747.02 431.3s-1.16 10.48 0 10.54c1.16.06 4.12-10.33 4.12-10.33z"/><path id="c9n7at" d="M746.25 170.66s-5.35 5.48-4.7 6.03c.63.55 6.96-4.06 6.96-4.06z"/><path id="c9n7au" d="M762.96 549.29s-5.73 6.52-4.98 7.1c.75.6 7.65-5.01 7.65-5.01z"/><path id="c9n7av" d="M765.52 277.5s.86 8.65 1.8 8.5c.95-.15 1.55-9.02 1.55-9.02z"/><path id="c9n7aw" d="M737.85 410.84s-5.73 6.52-4.98 7.1c.75.6 7.65-5.01 7.65-5.01z"/><path id="c9n7ax" d="M753.57 324.56s-5.73 6.52-4.98 7.1c.75.6 7.65-5.01 7.65-5.01z"/><path id="c9n7ay" d="M740.75 285.41s-.1 10.07.79 10.41c.89.35 2.37-10.55 2.37-10.55z"/><path id="c9n7az" d="M742.09 236.28s-5.73 6.52-4.98 7.1c.75.6 7.65-5.01 7.65-5.01z"/><path id="c9n7aA" d="M734 152.21s-8.53 8.3-7.21 9.24c1.32.92 11.9-5.95 11.9-5.95z"/><path id="c9n7aB" d="M754.39 525.85s-5.13 9.61-4.46 10c.68.4 6.85-8.61 6.85-8.61z"/><path id="c9n7aC" d="M730.19 318s-5.13 9.6-4.46 10c.68.38 6.85-8.62 6.85-8.62z"/><path id="c9n7aD" d="M769.1 471.18s4.76 9.8 5.48 9.48c.7-.31-2.95-10.6-2.95-10.6z"/><path id="c9n7aE" d="M775.07 198.86s4.76 9.8 5.48 9.48c.7-.31-2.95-10.6-2.95-10.6z"/><path id="c9n7aF" d="M776.23 593.7s-2.68 6.62-2 7c.67.4 4-5 4-5z"/><path id="c9n7aG" d="M761.12 447.62s-2.68 6.6-2 7c.67.39 4-5 4-5z"/><path id="c9n7aH" d="M767.09 175.3s-2.68 6.6-2 7c.67.39 4-5 4-5z"/><path id="c9n7aI" d="M787.9 557.95s6.45 3.02 6.88 2.36c.42-.65-4.79-4.25-4.79-4.25z"/><path id="c9n7aJ" d="M767.9 314.8s6.45 3.03 6.88 2.37c.42-.65-4.79-4.25-4.79-4.25z"/><path id="c9n7aK" d="M771.6 414.68s6.46 3.02 6.89 2.36c.42-.65-4.79-4.25-4.79-4.25z"/><path id="c9n7aL" d="M755.45 148.92s4.19 5.77 4.88 5.4c.69-.36-2.12-6.03-2.12-6.03z"/><path id="c9n7aM" d="M776.66 527.33s7.04 12.57 7.73 12.2c.69-.36-5.28-13.5-5.28-13.5z"/><path id="c9n7aN" d="M756.66 388.33s7.04 12.57 7.73 12.2c.69-.36-5.28-13.5-5.28-13.5z"/><path id="c9n7aO" d="M781.4 504.06s2.97 7.38 3.52 7.02c.55-.36-1.58-8.3-1.58-8.3z"/><path id="c9n7aP" d="M770.25 369.4s2.98 7.37 3.53 7.01c.55-.36-1.58-8.3-1.58-8.3z"/><path id="c9n7aQ" d="M292.62-37.47c-18.87 19.67-25.8 158.47-28.5 166.95-2.68 8.49-11.08 16.91-1.84 47.68 9.24 30.78 27.86 52.79 30.34 49.37 2.49-3.41-23.24-38.45-19.31-39.07 3.93-.62 25.17 45.23 32.67 48.07 7.5 2.84-27.4-52.93-23.47-53.56 3.93-.62 27.57 54.5 33.47 53.56 5.9-.93-28.66-61.37-24.93-56.92 3.72 4.44 25.74 47.05 32.93 47.92 7.19.88-31.08-55.27-29.32-69.65 1.75-14.38 11.32-13.35 11.32-13.35l6.87-1c-3.87-9-18.98-9.7-20.23-17.56-1.24-7.86 12.55-134.1 43.36-156.44 0 0-24.48-25.67-43.36-6z"/><path id="c9n7g" d="M383 0l-13 116s36.4 11 67.47 14 70.13 0 70.13 0S528 70.5 585.7 72.5s74.57 63.5 74.57 63.5 31.07 9 63.03 9S789 130 789 130L776 0z"/><path id="c9n7aS" d="M382.54 54c-5 0-18-31-10-34s10 6 10 6 8-12 14-6-9 34-14 34z"/><path id="c9n7aT" d="M426.54 99c-5 0-18-31-10-34s10 6 10 6 8-12 14-6-9 34-14 34z"/><path id="c9n7aU" d="M454.54 36c-5 0-18-31-10-34s10 6 10 6 8-12 14-6-9 34-14 34z"/><path id="c9n7aV" d="M526.54 63c-5 0-18-31-10-34s10 6 10 6 8-12 14-6-9 34-14 34z"/><path id="c9n7aW" d="M674.54 86c-5 0-18-31-10-34s10 6 10 6 8-12 14-6-9 34-14 34z"/><path id="c9n7aX" d="M719.54 18c-5 0-18-31-10-34s10 6 10 6 8-12 14-6-9 34-14 34z"/><path id="c9n7aY" d="M797.54 62c-5 0-18-31-10-34s10 6 10 6 8-12 14-6-9 34-14 34z"/><path id="c9n7aZ" d="M606.08 27.2c-3.22 0-11.6-19.98-6.44-21.91 5.15-1.93 6.44 3.86 6.44 3.86s5.16-7.73 9.02-3.86c3.87 3.86-5.8 21.9-9.02 21.9z"/><path id="c9n7ba" d="M675.08 144.2c-3.22 0-11.6-19.98-6.44-21.91 5.15-1.93 6.44 3.86 6.44 3.86s5.16-7.73 9.02-3.86c3.87 3.86-5.8 21.9-9.02 21.9z"/><path id="c9n7bb" d="M493.08 132.2c-3.22 0-11.6-19.98-6.44-21.91 5.15-1.93 6.44 3.86 6.44 3.86s5.16-7.73 9.02-3.86c3.87 3.86-5.8 21.9-9.02 21.9z"/><path id="c9n7bc" d="M743.08 120.2c-3.22 0-11.6-19.98-6.44-21.91 5.15-1.93 6.44 3.86 6.44 3.86s5.16-7.73 9.02-3.86c3.87 3.86-5.8 21.9-9.02 21.9z"/><path id="c9n7bd" d="M488 138.72C488 84.75 533 41 588.5 41S689 84.75 689 138.72s-45 97.72-100.5 97.72S488 192.69 488 138.72z"/><path id="c9n7be" d="M800.44 78.46a4.5 4.5 0 0 1 4.5-4.5H929.3l-.02.46a4.97 4.97 0 0 0 4.96 4.98 4.97 4.97 0 0 0 4.93-5.44h38.77a4.5 4.5 0 0 1 4.5 4.5v59a4.5 4.5 0 0 1-4.5 4.5h-38.77l.02-.46a4.97 4.97 0 0 0-4.95-4.98 4.97 4.97 0 0 0-4.94 5.44H804.94a4.5 4.5 0 0 1-4.5-4.5z"/><path id="c9n7bf" d="M804.44 87.46a4.5 4.5 0 0 1 4.5-4.5H933.3l-.02.46a4.97 4.97 0 0 0 4.96 4.98 4.97 4.97 0 0 0 4.93-5.44h38.77a4.5 4.5 0 0 1 4.5 4.5v59a4.5 4.5 0 0 1-4.5 4.5h-38.77l.02-.46a4.97 4.97 0 0 0-4.95-4.98 4.97 4.97 0 0 0-4.94 5.44H808.94a4.5 4.5 0 0 1-4.5-4.5z"/><path id="c9n7bg" d="M954.25 114.7l-.26.03c-.98-1.08-2.13-2.24-2.83-3.1a1.38 1.38 0 0 0-1.18-.54h-.06c-.2 0-.37.05-.35.26l1.02 4.32c-.63.28-1.08.6-1.09.93l.01.08v.08c-.01.33.43.64 1.05.9l-1.13 4.35c-.02.21.14.25.35.25h.06c.5 0 .87-.18 1.19-.57.73-.88 1.9-2.07 2.91-3.17l.26.02 6.54-.09-2.54 10.72c-.06.55.3.67.76.66h.13c.3 0 .57-.22.7-.55l7.2-10.9 6.24-.09c.64 0 3-.87 3-1.88v-.08-.07c.02-1.02-2.31-1.82-2.95-1.8l-6.24.07-6.91-10.73c-.12-.32-.4-.53-.7-.52h-.13c-.46 0-.82.13-.77.68l2.26 10.66z"/><path id="c9n7bh" d="M801.94-97.55c24.87 11.17 83.3 137.26 88.96 144.12 5.67 6.86 16.62 11.52 19.58 43.52 2.96 31.99-6.07 59.37-9.64 57.14-3.58-2.24 7.15-44.36 3.27-43.46-3.88.89-4.27 44.23-15.11 50.23-5.8 3.2.99-10.65 4-26 2.61-13.33 2.32-26.3.52-25.87-3.88.9-.7 43.87-15.52 50.87-7.63 3.6.6-5.94 4-22 3.2-15.18.45-30.92-1-28-3 6-2 42.23-14 47-5.92 2.35.46-9.26 3-25 2.6-16.2 1.45-34.68 0-43-2.87-16.41-10-25-10-25s-3-1-11-4c7-10 11.79-3.25 10-11-1.8-7.76-58.08-108.58-95.01-117.75 0 0 13.08-32.97 37.95-21.8z"/><clipPath id="c9n7V"><use fill="#fff" xlink:href="#c9n7a"/></clipPath><clipPath id="c9n7X"><use fill="#fff" xlink:href="#c9n7b"/></clipPath><clipPath id="c9n7Z"><use fill="#fff" xlink:href="#c9n7c"/></clipPath><clipPath id="c9n7ab"><use fill="#fff" xlink:href="#c9n7d"/></clipPath><clipPath id="c9n7j"><use xlink:href="#c9n7e"/></clipPath><clipPath id="c9n7ad"><use xlink:href="#c9n7f"/></clipPath><clipPath id="c9n7aR"><use xlink:href="#c9n7g"/></clipPath></defs><g><g transform="translate(100 99)"><use fill="#d78da4" xlink:href="#c9n7h"/></g><g transform="translate(100 99)"><use fill="#cd718e" xlink:href="#c9n7i"/></g><g transform="translate(100 99)"><g><g><use fill="#e1b2a1" xlink:href="#c9n7e"/></g><g clip-path="url(#c9n7j)"><use fill="#cc9b8a" xlink:href="#c9n7k"/></g><g clip-path="url(#c9n7j)"><use fill="#cc9b8a" xlink:href="#c9n7l"/></g><g clip-path="url(#c9n7j)"><use fill="#cc9b8a" xlink:href="#c9n7m"/></g></g><g><g><use fill="#9d796c" xlink:href="#c9n7n"/></g><g><use fill="#9d796c" xlink:href="#c9n7o"/></g><g><use fill="#9d796c" xlink:href="#c9n7p"/></g><g><use fill="#9d796c" xlink:href="#c9n7q"/></g><g><use fill="#9d796c" xlink:href="#c9n7r"/></g><g><use fill="#9d796c" xlink:href="#c9n7s"/></g><g><use fill="#9d796c" xlink:href="#c9n7t"/></g><g><use fill="#9d796c" xlink:href="#c9n7u"/></g><g><use fill="#9d796c" xlink:href="#c9n7v"/></g><g><use fill="#9d796c" xlink:href="#c9n7w"/></g><g><use fill="#9d796c" xlink:href="#c9n7x"/></g><g><use fill="#9d796c" xlink:href="#c9n7y"/></g><g><use fill="#9d796c" xlink:href="#c9n7z"/></g><g><use fill="#9d796c" xlink:href="#c9n7A"/></g><g><use fill="#9d796c" xlink:href="#c9n7B"/></g><g><use fill="#9d796c" xlink:href="#c9n7C"/></g><g><use fill="#9d796c" xlink:href="#c9n7D"/></g><g><use fill="#9d796c" xlink:href="#c9n7E"/></g><g><use fill="#9d796c" xlink:href="#c9n7F"/></g><g><use fill="#9d796c" xlink:href="#c9n7G"/></g><g><use fill="#9d796c" xlink:href="#c9n7H"/></g><g><use fill="#9d796c" xlink:href="#c9n7I"/></g><g><use fill="#9d796c" xlink:href="#c9n7J"/></g><g><use fill="#9d796c" xlink:href="#c9n7K"/></g><g><use fill="#9d796c" xlink:href="#c9n7L"/></g><g><use fill="#9d796c" xlink:href="#c9n7M"/></g><g><use fill="#9d796c" xlink:href="#c9n7N"/></g><g><use fill="#9d796c" xlink:href="#c9n7O"/></g><g><use fill="#9d796c" xlink:href="#c9n7P"/></g><g><use fill="#9d796c" xlink:href="#c9n7Q"/></g><g><use fill="#9d796c" xlink:href="#c9n7R"/></g><g><use fill="#9d796c" xlink:href="#c9n7S"/></g><g><use fill="#9d796c" xlink:href="#c9n7T"/></g></g></g><g transform="translate(100 99)"><use fill="#fff" xlink:href="#c9n7U"/></g><g transform="rotate(-12 811.46 -169.72)"><g><use fill="#fff" fill-opacity="0" stroke="#cd718e" stroke-miterlimit="50" stroke-width="8" clip-path="url(&quot;#c9n7V&quot;)" xlink:href="#c9n7a"/></g><g><use fill="#efe2e2" xlink:href="#c9n7W"/></g><g><use fill="#fff" fill-opacity="0" stroke="#cd718e" stroke-miterlimit="50" stroke-width="8" clip-path="url(&quot;#c9n7X&quot;)" xlink:href="#c9n7b"/></g><g><use fill="#efe2e2" xlink:href="#c9n7Y"/></g><g><use fill="#fff" fill-opacity="0" stroke="#cd718e" stroke-miterlimit="50" stroke-width="8" clip-path="url(&quot;#c9n7Z&quot;)" xlink:href="#c9n7c"/></g><g><use fill="#efe2e2" xlink:href="#c9n7aa"/></g><g><use fill="#fff" fill-opacity="0" stroke="#cd718e" stroke-miterlimit="50" stroke-width="8" clip-path="url(&quot;#c9n7ab&quot;)" xlink:href="#c9n7d"/></g><g><use fill="#efe2e2" xlink:href="#c9n7ac"/></g></g><g transform="translate(100 99)"><g><g><use fill="#e1b2a1" xlink:href="#c9n7f"/></g><g clip-path="url(#c9n7ad)"><use fill="#cc9b8a" xlink:href="#c9n7ae"/></g><g clip-path="url(#c9n7ad)"><use fill="#cc9b8a" xlink:href="#c9n7af"/></g></g><g transform="scale(-1 1) rotate(-4 0 22281.23)"><g><use fill="#9d796c" xlink:href="#c9n7ag"/></g><g><use fill="#9d796c" xlink:href="#c9n7ah"/></g><g><use fill="#9d796c" xlink:href="#c9n7ai"/></g><g><use fill="#9d796c" xlink:href="#c9n7aj"/></g><g><use fill="#9d796c" xlink:href="#c9n7ak"/></g><g><use fill="#9d796c" xlink:href="#c9n7al"/></g><g><use fill="#9d796c" xlink:href="#c9n7am"/></g><g><use fill="#9d796c" xlink:href="#c9n7an"/></g><g><use fill="#9d796c" xlink:href="#c9n7ao"/></g><g><use fill="#9d796c" xlink:href="#c9n7ap"/></g><g><use fill="#9d796c" xlink:href="#c9n7aq"/></g><g><use fill="#9d796c" xlink:href="#c9n7ar"/></g><g><use fill="#9d796c" xlink:href="#c9n7as"/></g><g><use fill="#9d796c" xlink:href="#c9n7at"/></g><g><use fill="#9d796c" xlink:href="#c9n7au"/></g><g><use fill="#9d796c" xlink:href="#c9n7av"/></g><g><use fill="#9d796c" xlink:href="#c9n7aw"/></g><g><use fill="#9d796c" xlink:href="#c9n7ax"/></g><g><use fill="#9d796c" xlink:href="#c9n7ay"/></g><g><use fill="#9d796c" xlink:href="#c9n7az"/></g><g><use fill="#9d796c" xlink:href="#c9n7aA"/></g><g><use fill="#9d796c" xlink:href="#c9n7aB"/></g><g><use fill="#9d796c" xlink:href="#c9n7aC"/></g><g><use fill="#9d796c" xlink:href="#c9n7aD"/></g><g><use fill="#9d796c" xlink:href="#c9n7aE"/></g><g><use fill="#9d796c" xlink:href="#c9n7aF"/></g><g><use fill="#9d796c" xlink:href="#c9n7aG"/></g><g><use fill="#9d796c" xlink:href="#c9n7aH"/></g><g><use fill="#9d796c" xlink:href="#c9n7aI"/></g><g><use fill="#9d796c" xlink:href="#c9n7aJ"/></g><g><use fill="#9d796c" xlink:href="#c9n7aK"/></g><g><use fill="#9d796c" xlink:href="#c9n7aL"/></g><g><use fill="#9d796c" xlink:href="#c9n7aM"/></g><g><use fill="#9d796c" xlink:href="#c9n7aN"/></g><g><use fill="#9d796c" xlink:href="#c9n7aO"/></g><g><use fill="#9d796c" xlink:href="#c9n7aP"/></g></g></g><g transform="translate(100 99)"><use fill="#e1b2a1" xlink:href="#c9n7aQ"/></g><g transform="translate(100 99)"><g><use fill="#fff" xlink:href="#c9n7g"/></g><g clip-path="url(#c9n7aR)"><g><use fill="#ffb7cd" xlink:href="#c9n7aS"/></g><g><use fill="#ffb7cd" xlink:href="#c9n7aT"/></g><g><use fill="#ffb7cd" xlink:href="#c9n7aU"/></g><g><use fill="#ffb7cd" xlink:href="#c9n7aV"/></g><g><use fill="#ffb7cd" xlink:href="#c9n7aW"/></g><g><use fill="#ffb7cd" xlink:href="#c9n7aX"/></g><g><use fill="#ffb7cd" xlink:href="#c9n7aY"/></g><g><use fill="#ffb7cd" xlink:href="#c9n7aZ"/></g><g><use fill="#ffb7cd" xlink:href="#c9n7ba"/></g><g><use fill="#ffb7cd" xlink:href="#c9n7bb"/></g><g><use fill="#ffb7cd" xlink:href="#c9n7bc"/></g></g><g clip-path="url(#c9n7aR)"><use fill-opacity=".1" xlink:href="#c9n7bd"/></g></g><g transform="rotate(13 509.04 604.34)"><g transform="rotate(9 893.5 107.5)"><g><use fill="#663244" xlink:href="#c9n7be"/></g></g><g transform="rotate(15 895 117.5)"><g><use fill="#7f4156" xlink:href="#c9n7bf"/></g><g><use fill="#fff" xlink:href="#c9n7bg"/></g></g></g><g transform="translate(100 99)"><use fill="#e1b2a1" xlink:href="#c9n7bh"/></g></g></svg>